{"glyphs":{"":{"ha":0,"x_min":0,"x_max":0,"o":""},"":{"ha":694,"x_min":0,"x_max":0,"o":""}," ":{"ha":260,"x_min":0,"x_max":0,"o":""},"-":{"ha":486,"x_min":3,"x_max":482,"o":"m 447 253 q 85 260 117 247 q 39 285 54 272 q 13 314 24 299 q 4 340 3 329 q 10 355 6 350 q 17 360 15 360 l 385 360 q 416 351 399 360 q 448 330 433 343 q 472 301 463 317 q 482 276 482 285 q 474 260 482 268 q 447 253 467 253 z "},"A":{"ha":810,"x_min":13,"x_max":943,"o":"m 32 69 q 35 93 32 85 q 52 136 38 101 q 90 227 67 171 q 146 349 114 283 q 64 361 85 353 q 28 383 43 369 q 13 413 13 397 q 21 437 13 429 q 38 446 29 444 q 68 450 47 447 q 113 456 89 453 q 218 471 136 458 q 253 528 238 501 q 341 672 268 556 q 445 833 414 789 q 508 917 476 878 q 565 988 539 957 q 619 1047 590 1019 q 683 1094 649 1075 q 748 1114 717 1114 q 812 1108 779 1114 q 874 1087 844 1101 q 923 1050 903 1072 q 943 1001 943 1028 q 942 968 943 974 q 938 957 940 963 q 731 526 935 951 q 792 517 774 525 q 825 498 810 510 q 840 467 840 486 q 833 446 840 456 q 814 433 825 436 l 681 417 q 622 219 632 283 q 622 122 613 156 q 694 135 632 88 q 810 257 757 182 l 810 156 q 669 24 708 49 q 595 -1 629 -1 q 536 11 561 -1 q 494 45 511 24 q 469 95 478 67 q 462 189 461 124 q 508 396 463 254 q 335 376 439 390 q 319 348 324 358 q 299 303 314 338 q 266 229 283 268 q 233 156 249 190 q 210 100 218 121 q 196 66 201 79 q 186 41 190 53 q 181 24 182 29 q 160 4 169 10 q 132 -1 150 -1 q 101 3 118 -1 q 68 17 83 8 q 42 40 53 26 q 32 69 32 53 m 390 493 q 549 508 496 500 l 801 1010 q 788 1018 800 1013 q 744 999 775 1024 q 668 924 714 975 q 596 838 622 874 q 556 780 569 801 q 508 701 542 758 q 455 610 474 644 q 420 547 436 576 q 390 493 404 517 z "},"B":{"ha":801,"x_min":14,"x_max":924,"o":"m 218 122 q 202 88 210 104 q 186 52 194 72 q 165 16 178 32 q 128 0 153 0 q 96 3 115 0 q 58 15 76 7 q 27 35 40 22 q 14 65 14 47 q 15 76 14 72 q 21 90 17 81 q 400 976 394 953 q 394 1010 406 1000 q 351 1012 383 1019 q 278 960 318 1004 q 215 869 239 917 q 187 808 190 821 q 178 783 183 796 q 151 760 172 769 q 121 760 129 750 q 108 785 113 771 q 103 849 104 800 q 129 947 103 897 q 198 1035 156 997 q 294 1094 240 1072 q 406 1115 349 1115 q 495 1090 463 1115 q 529 982 528 1065 q 642 1084 585 1053 q 768 1115 700 1115 q 880 1078 836 1115 q 924 977 924 1040 q 903 860 924 914 q 848 760 882 807 q 769 678 814 714 q 626 586 724 642 q 744 515 693 571 q 796 381 796 460 q 767 235 796 303 q 690 113 739 167 q 576 27 642 60 q 442 -6 511 -6 q 312 25 372 -6 q 218 122 251 56 m 347 164 q 368 119 347 136 q 426 103 389 103 q 501 131 464 103 q 565 201 539 160 q 603 292 590 243 q 617 392 617 340 q 590 472 617 444 q 517 500 563 500 q 438 488 471 500 q 379 456 406 476 q 335 408 353 436 q 318 346 318 379 q 433 354 388 360 q 501 328 478 349 q 403 260 426 279 q 363 217 379 240 q 347 164 347 193 m 414 603 q 651 744 585 678 q 747 859 717 810 q 776 947 776 908 q 767 997 776 985 q 722 1005 757 1010 q 629 944 688 1000 q 516 808 571 889 q 414 603 461 726 z "},"C":{"ha":610,"x_min":14,"x_max":686,"o":"m 14 319 q 29 454 14 375 q 74 619 44 533 q 145 791 103 706 q 241 944 188 876 q 359 1053 294 1011 q 506 1094 424 1094 q 637 1039 588 1094 q 683 903 686 983 q 673 788 679 822 q 656 716 667 753 q 633 649 646 679 q 603 600 619 619 q 568 581 588 581 q 522 597 544 581 q 500 639 500 613 l 500 646 q 510 689 503 658 q 526 754 518 719 q 541 820 533 789 q 553 880 549 851 q 558 930 558 908 q 551 972 558 951 q 520 992 544 992 q 475 979 496 992 q 436 949 454 967 q 403 910 418 931 q 378 876 388 890 q 244 608 294 751 q 191 354 193 464 q 200 200 189 244 q 230 132 211 156 q 285 108 249 108 q 356 128 324 108 q 414 180 388 149 q 463 247 440 211 q 503 313 485 282 q 538 365 522 344 q 568 385 553 385 q 593 374 583 385 q 603 349 603 364 q 594 305 603 328 q 576 263 586 282 q 525 168 554 215 q 458 83 496 121 q 374 23 421 46 q 262 0 328 0 q 147 27 196 0 q 69 99 99 54 q 26 201 39 143 q 14 319 14 258 z "},"D":{"ha":921,"x_min":15,"x_max":988,"o":"m 240 172 q 291 243 271 210 q 334 341 311 276 q 376 472 357 406 q 414 603 394 538 q 458 720 433 669 q 535 853 482 771 q 679 1003 588 935 q 599 1015 649 1018 q 492 985 549 1013 q 395 913 436 958 q 331 807 354 867 q 308 705 308 747 q 312 645 308 663 q 315 612 315 628 q 306 586 315 596 q 278 576 296 576 q 242 599 260 576 q 211 651 224 621 q 192 713 199 682 q 186 792 186 744 q 225 902 186 839 q 324 1010 264 965 q 456 1078 383 1054 q 617 1103 529 1103 q 778 1069 704 1103 q 898 977 851 1036 q 966 837 944 918 q 988 672 988 756 q 975 511 988 588 q 938 362 963 435 q 874 223 913 289 q 783 108 836 157 q 663 29 731 58 q 537 0 596 0 q 444 6 478 0 q 382 26 411 11 q 342 48 353 42 q 296 69 331 54 q 247 33 267 46 q 193 7 226 19 q 131 -6 160 -6 q 83 2 103 -6 q 49 22 64 10 q 24 58 33 35 q 22 120 15 81 q 84 185 28 160 q 240 172 140 211 m 353 129 q 472 103 417 103 q 581 135 526 103 q 677 221 636 168 q 747 342 718 274 q 794 481 776 410 q 819 618 811 551 q 830 740 828 685 q 816 865 832 796 q 767 958 800 933 q 659 827 690 894 q 608 688 628 760 q 571 541 589 615 q 519 397 553 467 q 444 257 483 322 q 353 129 406 192 z "},"E":{"ha":639,"x_min":14,"x_max":808,"o":"m 14 226 q 37 358 14 297 q 99 467 60 418 q 193 555 139 517 q 301 613 247 593 q 436 649 354 633 q 336 751 364 703 q 308 847 308 799 q 333 944 308 894 q 399 1032 358 994 q 492 1092 440 1069 q 586 1114 544 1114 q 664 1107 628 1114 q 733 1084 700 1100 q 787 1043 765 1068 q 808 990 808 1018 q 799 928 808 963 q 774 859 789 893 q 738 799 758 825 q 701 774 718 774 q 673 782 685 774 q 658 797 661 790 q 653 822 654 803 q 658 861 653 842 q 669 899 663 881 q 681 938 675 918 q 686 978 686 957 q 669 1013 686 1000 q 620 1025 651 1025 q 556 1003 589 1025 q 501 947 524 981 q 467 872 479 913 q 467 778 456 832 q 506 703 479 724 q 555 678 532 683 q 600 664 578 672 q 638 643 622 656 q 654 610 654 631 q 654 597 654 606 q 647 589 654 590 q 471 563 557 583 q 317 499 385 543 q 208 385 249 456 q 167 249 167 314 q 175 160 167 183 q 199 120 183 138 q 235 92 214 103 q 290 82 256 82 q 365 107 325 82 q 435 170 406 132 q 483 254 465 208 q 501 342 501 300 q 462 385 501 385 q 401 360 422 385 q 364 307 379 336 q 335 253 349 278 q 306 229 322 229 q 282 237 290 229 q 269 256 274 244 q 264 278 265 267 q 263 315 263 290 q 278 372 263 339 q 320 426 294 404 q 381 461 346 449 q 471 474 415 474 q 574 432 526 474 q 622 319 622 390 q 593 191 622 249 q 517 91 564 133 q 411 24 471 49 q 294 -1 351 -1 q 188 13 238 -1 q 100 56 139 28 q 38 127 61 85 q 14 226 14 169 z "},"F":{"ha":869,"x_min":14,"x_max":1244,"o":"m 14 206 q 35 297 14 257 q 92 366 57 338 q 174 409 128 394 q 256 424 219 424 q 303 424 293 425 q 321 419 314 422 q 328 407 328 415 q 301 387 328 406 q 241 337 274 368 q 181 263 208 306 q 154 179 154 221 q 170 110 154 138 q 219 83 186 83 q 279 101 253 83 q 328 145 306 119 q 367 201 351 171 q 488 521 383 232 q 385 533 404 525 q 352 553 365 540 q 339 579 339 567 q 341 596 339 592 q 358 612 343 600 q 531 624 372 624 q 606 773 569 715 q 672 865 643 831 q 794 989 700 900 q 706 1002 754 997 q 592 1001 657 1007 q 492 981 526 994 q 431 944 458 967 q 384 893 403 922 q 365 835 365 864 q 382 787 365 806 q 426 768 399 768 q 468 788 453 768 q 493 830 483 807 q 509 873 503 853 q 525 896 515 893 q 544 889 535 899 q 560 865 553 879 q 572 837 567 851 q 576 817 576 822 q 562 765 576 788 q 524 728 547 743 q 474 705 501 713 q 399 697 447 697 q 307 744 351 697 q 263 862 263 790 q 301 983 263 933 q 399 1064 340 1033 q 525 1108 457 1094 q 670 1121 593 1121 q 840 1108 747 1121 q 1028 1094 932 1094 q 1137 1105 1083 1094 q 1244 1115 1190 1115 q 1218 1040 1244 1069 q 1153 992 1192 1010 q 1069 967 1114 974 q 989 960 1025 960 q 946 963 967 960 q 903 967 925 967 q 865 946 886 967 q 820 893 843 925 q 775 823 797 861 q 735 749 753 785 q 708 684 718 713 q 682 626 697 656 q 776 625 753 626 q 846 621 799 624 q 873 617 858 621 q 900 605 888 613 q 921 586 913 597 q 929 560 929 575 q 927 544 929 554 q 915 535 925 535 l 657 533 q 584 342 649 510 q 484 124 519 174 q 410 48 449 74 q 328 8 372 22 q 238 -6 283 -6 q 152 10 193 -6 q 81 53 111 25 q 32 119 50 81 q 14 206 14 158 z "},"G":{"ha":742,"x_min":14,"x_max":808,"o":"m 14 263 q 37 417 14 328 q 101 599 60 506 q 197 784 142 693 q 318 947 253 875 q 448 1058 383 1018 q 580 1104 513 1097 q 683 1097 647 1111 q 748 1058 719 1082 q 792 999 776 1035 q 808 901 808 963 q 772 765 808 840 q 679 639 736 689 q 660 632 671 632 q 623 648 643 632 q 603 683 603 664 l 603 690 q 614 731 606 701 q 631 795 622 761 q 649 859 640 829 q 661 904 657 889 q 666 928 665 919 q 667 957 667 936 q 655 994 667 978 q 610 1008 643 1011 q 509 940 576 1006 q 358 730 442 875 q 237 480 275 585 q 189 326 199 375 q 179 240 179 278 q 183 183 179 203 q 194 146 186 163 q 217 118 203 129 q 263 107 232 107 q 334 136 294 107 q 405 208 374 165 q 456 297 436 250 q 475 363 475 343 q 474 399 475 382 q 344 407 356 399 q 324 428 333 415 q 308 453 314 440 q 301 476 301 467 q 309 494 301 488 q 354 506 317 501 q 444 511 392 511 q 599 509 496 511 q 724 487 703 507 q 744 449 744 467 q 738 426 744 432 q 723 419 732 421 q 703 416 714 417 q 590 401 693 415 q 573 254 594 326 q 508 124 551 182 q 399 32 464 67 q 263 -3 335 -3 q 147 17 192 -3 q 72 71 101 36 q 28 155 42 106 q 14 263 14 204 z "},"H":{"ha":824,"x_min":14,"x_max":1000,"o":"m 58 60 q 58 74 58 71 q 65 86 58 76 q 88 127 69 94 q 129 198 107 160 q 170 269 151 236 q 228 376 189 301 q 115 368 139 368 q 75 374 90 368 q 46 390 60 381 q 23 411 32 399 q 14 438 14 424 q 32 459 14 453 q 77 467 50 465 q 275 482 104 468 q 374 708 357 667 q 426 830 392 749 q 463 945 460 911 q 453 997 465 979 q 415 1015 442 1014 q 334 963 388 1015 q 242 827 281 910 q 201 699 204 744 q 193 649 197 653 q 186 643 189 644 l 183 643 l 181 643 q 134 701 151 664 q 117 787 117 738 q 147 896 117 836 q 225 1001 176 956 q 335 1076 274 1047 q 441 1104 396 1104 q 513 1097 486 1104 q 559 1074 539 1089 q 591 1035 579 1058 q 603 972 603 1013 q 590 881 603 932 q 565 799 578 831 q 535 731 551 768 q 501 652 519 694 q 467 572 483 610 q 433 497 450 535 q 544 507 461 499 l 839 1053 q 868 1090 851 1075 q 910 1104 885 1104 q 933 1102 918 1104 q 963 1095 947 1100 q 989 1083 978 1090 q 1000 1065 1000 1075 q 997 1049 1000 1054 q 986 1033 993 1044 q 696 519 704 540 q 780 504 749 518 q 825 470 811 490 q 840 448 839 450 q 840 444 840 446 q 833 432 840 438 q 654 413 826 426 q 617 326 629 356 q 594 265 606 296 q 574 205 583 233 q 564 149 564 176 q 575 107 564 122 q 612 92 586 92 q 672 118 638 92 q 735 176 706 144 q 788 233 765 207 q 817 260 811 260 q 819 258 819 260 q 824 256 821 258 q 826 253 826 254 l 826 250 q 800 164 826 208 q 734 82 774 119 q 648 20 694 44 q 563 -4 601 -4 q 500 9 525 -4 q 460 44 475 22 q 437 94 444 65 q 429 169 429 124 q 448 267 429 214 q 499 399 467 321 q 389 389 431 392 l 186 10 q 170 -5 182 0 q 149 -10 158 -10 q 122 -3 138 -10 q 92 13 106 3 q 68 35 78 22 q 58 60 58 47 z "},"I":{"ha":613,"x_min":13,"x_max":943,"o":"m 110 7 q 77 15 94 7 q 45 33 60 22 q 22 60 31 44 q 13 92 13 75 q 15 106 13 99 q 26 114 17 114 l 213 114 q 392 535 215 114 q 578 986 569 956 q 467 988 494 986 q 422 999 440 990 q 389 1022 404 1008 q 363 1050 374 1035 q 353 1081 353 1065 l 353 1083 q 360 1091 356 1086 q 367 1096 365 1096 l 846 1096 q 877 1088 860 1096 q 909 1066 894 1079 q 933 1037 924 1053 q 943 1007 943 1021 q 942 998 943 1004 q 936 992 940 992 l 738 989 q 375 114 725 978 q 433 110 401 114 q 494 95 464 106 q 548 67 525 85 q 571 22 571 50 q 547 0 571 0 q 490 1 524 0 q 413 2 456 1 q 324 3 371 3 q 235 5 278 4 q 159 6 193 6 q 110 7 125 7 z "},"J":{"ha":643,"x_min":14,"x_max":1018,"o":"m 688 975 q 621 978 646 976 q 575 986 596 979 q 535 1007 554 993 q 495 1047 517 1021 q 486 1088 474 1074 q 713 1103 499 1103 q 946 1094 926 1103 q 981 1071 965 1085 q 1008 1039 997 1057 q 1016 1009 1018 1021 q 1010 991 1014 997 q 956 983 1006 985 q 829 979 906 982 q 485 128 510 165 q 427 63 460 92 q 355 17 394 35 q 267 0 315 0 q 173 19 219 0 q 91 70 126 38 q 35 147 56 103 q 14 243 14 192 q 43 346 14 299 q 117 427 72 393 q 216 480 161 461 q 322 499 271 499 q 335 486 335 499 q 310 456 335 479 q 254 397 285 432 q 199 320 224 363 q 176 225 174 278 q 185 153 178 172 q 204 120 192 133 q 243 107 217 107 q 294 124 269 107 q 336 168 318 142 q 368 223 354 194 q 688 975 382 251 z "},"K":{"ha":682,"x_min":14,"x_max":961,"o":"m 333 386 q 326 384 331 386 q 232 200 322 382 q 131 5 142 18 q 104 -8 119 -8 q 78 -3 93 -8 q 48 10 63 1 q 24 31 33 19 q 14 57 14 43 l 14 63 q 354 771 310 656 q 405 913 399 886 q 411 971 411 939 q 374 1003 411 1003 q 304 978 336 1003 q 246 920 272 954 q 201 847 219 886 q 174 767 182 808 q 163 704 167 726 q 153 666 160 682 q 116 665 147 650 q 74 710 85 681 q 64 795 64 740 q 93 906 64 850 q 170 1006 122 963 q 278 1074 218 1049 q 383 1099 339 1099 q 455 1092 428 1099 q 503 1070 482 1085 q 538 1033 525 1056 q 551 960 551 1011 q 535 869 551 910 q 506 794 519 829 q 417 590 492 758 q 484 616 469 601 q 513 644 499 631 q 692 881 528 658 q 862 1108 857 1103 q 880 1113 867 1113 q 907 1107 893 1113 q 933 1093 921 1101 q 953 1074 944 1085 q 961 1056 961 1063 q 960 1047 961 1050 q 786 813 958 1043 q 552 534 614 582 q 404 472 490 486 q 493 395 472 428 q 514 319 514 363 q 503 235 514 275 q 489 159 493 194 q 564 169 485 124 q 682 257 643 214 l 682 156 q 580 56 615 89 q 527 13 544 24 q 490 -6 510 1 q 443 -14 471 -14 q 390 8 415 -14 q 358 49 364 29 q 352 116 353 68 q 365 217 351 164 q 378 310 379 269 q 333 386 376 350 z "},"L":{"ha":843,"x_min":14,"x_max":1044,"o":"m 14 143 q 35 207 14 179 q 89 253 57 235 q 157 280 121 271 q 244 287 193 289 q 336 271 296 285 q 440 522 428 485 q 358 576 394 546 q 298 649 321 606 q 275 747 275 692 q 302 847 275 801 q 372 924 329 892 q 466 974 414 957 q 546 992 518 992 q 576 988 574 992 q 578 978 578 983 q 549 951 578 972 q 488 899 521 929 q 426 835 454 869 q 390 750 397 800 q 396 667 382 700 q 426 619 410 635 q 469 594 442 604 q 563 794 535 736 q 625 911 592 853 q 698 1015 658 969 q 785 1090 738 1061 q 878 1119 832 1119 q 954 1103 925 1119 q 1003 1060 983 1086 q 1034 1001 1024 1035 q 1044 919 1044 968 q 1023 810 1044 871 q 965 696 1001 749 q 877 602 928 643 q 774 541 826 561 q 688 513 722 521 q 596 501 653 506 l 467 208 q 573 150 517 168 q 675 141 629 132 q 764 183 721 150 q 843 257 807 217 l 843 156 q 731 36 788 72 q 613 0 674 0 q 503 30 551 0 q 401 107 456 60 q 322 34 358 54 q 254 7 285 14 q 188 0 224 0 q 122 9 153 0 q 67 35 92 18 q 28 80 43 53 q 14 143 14 107 m 117 121 q 140 102 125 108 q 190 101 156 96 q 253 128 225 107 q 297 185 282 150 q 229 203 265 200 q 176 203 193 206 q 146 195 160 201 q 123 176 132 189 q 115 144 114 164 q 117 121 115 124 m 621 575 q 749 617 694 574 q 844 724 803 661 q 911 857 886 788 q 936 962 936 926 q 930 1014 936 997 q 900 1031 924 1031 q 853 1010 876 1031 q 810 961 831 989 q 774 903 790 933 q 741 840 758 874 q 693 740 724 807 q 654 653 663 674 q 621 575 646 633 z "},"M":{"ha":944,"x_min":14,"x_max":1083,"o":"m 14 75 q 356 893 346 860 q 367 954 367 926 q 360 992 367 982 q 322 1003 353 1003 q 259 974 292 1003 q 200 906 226 946 q 150 806 174 867 q 123 710 126 744 q 114 663 119 676 q 97 650 108 650 q 65 667 78 650 q 43 706 51 683 q 31 752 35 729 q 26 812 26 775 q 55 905 26 849 q 130 1004 83 961 q 235 1073 176 1047 q 341 1099 293 1099 q 427 1088 389 1099 q 507 996 465 1076 q 575 1047 542 1029 q 642 1072 608 1065 q 713 1079 676 1079 q 772 1057 749 1079 q 807 1003 796 1035 q 874 1026 808 1003 q 996 1043 940 1049 q 1067 1015 1051 1038 q 1082 965 1083 993 q 945 631 1081 938 q 792 258 810 324 q 775 156 775 192 q 784 110 775 121 q 828 122 793 100 q 888 176 864 144 q 944 257 913 207 l 944 156 q 899 82 929 119 q 828 21 869 44 q 734 -3 788 -3 q 648 38 681 -3 q 619 158 615 78 q 753 556 624 238 q 884 897 883 874 q 851 908 885 919 q 803 882 817 897 q 778 850 789 867 q 594 423 767 833 q 410 1 422 13 q 379 -10 399 -10 q 350 -5 367 -10 q 318 10 333 0 q 292 31 303 19 q 282 58 282 43 q 283 63 282 63 q 453 474 285 68 q 622 903 621 881 q 591 917 622 926 q 537 880 560 907 q 142 11 514 853 q 128 -6 135 -3 q 110 -10 121 -10 q 79 -4 96 -10 q 48 10 63 1 q 24 33 33 19 q 14 64 14 47 l 14 75 z "},"N":{"ha":760,"x_min":14,"x_max":924,"o":"m 14 61 q 15 74 14 69 q 21 88 17 79 q 393 931 389 886 q 383 999 397 976 q 321 1007 368 1022 q 235 958 274 992 q 167 858 196 925 q 122 715 138 792 q 115 708 121 708 q 106 708 110 708 q 78 722 90 708 q 60 755 67 736 q 49 828 53 774 q 75 934 46 882 q 151 1024 104 986 q 256 1084 199 1063 q 374 1106 313 1106 q 474 1069 435 1106 q 539 978 514 1033 q 579 1003 540 978 q 658 1045 618 1029 q 731 1071 699 1061 q 809 1081 763 1081 q 890 1058 856 1081 q 909 963 924 1035 q 785 674 894 892 q 655 411 675 457 q 617 317 635 365 q 588 219 600 268 q 576 148 576 171 q 581 119 576 125 q 597 113 586 113 q 626 124 608 113 q 664 156 643 136 q 699 190 685 175 q 760 257 714 204 l 760 156 q 684 63 718 96 q 609 10 650 31 q 534 -10 568 -10 q 478 2 500 -10 q 444 41 457 14 q 431 117 432 68 q 456 262 429 165 q 613 620 482 358 q 736 929 743 882 q 688 965 729 976 q 600 916 647 953 q 507 792 553 879 q 144 -6 153 -1 q 121 -10 136 -10 q 90 -5 108 -10 q 54 9 71 0 q 26 31 38 18 q 14 61 14 44 z "},"O":{"ha":647,"x_min":13,"x_max":757,"o":"m 582 310 q 453 123 485 158 q 383 60 421 88 q 303 15 346 32 q 208 -1 260 -1 q 119 22 157 -1 q 58 83 82 46 q 24 167 35 121 q 13 268 13 214 q 33 410 13 322 q 93 590 54 497 q 185 775 132 683 q 303 939 239 867 q 442 1056 368 1011 q 594 1100 517 1100 q 714 1052 671 1100 q 757 949 757 1004 q 744 790 757 894 q 706 599 732 685 q 636 417 679 513 q 694 439 671 417 q 743 485 718 461 l 746 485 l 750 485 q 756 479 751 485 q 757 467 757 476 q 757 456 757 458 q 746 409 757 429 q 717 374 735 389 q 678 347 700 358 q 582 310 657 335 m 465 329 q 389 399 419 358 q 358 517 358 440 q 376 655 358 593 q 428 765 393 717 q 516 842 463 813 q 647 842 569 872 q 646 950 653 918 q 613 990 639 982 q 567 987 588 997 q 524 956 546 976 q 490 924 503 936 q 439 869 478 913 q 351 746 400 825 q 265 579 301 667 q 208 401 229 492 q 186 260 186 310 q 187 192 186 211 q 192 155 188 172 q 208 125 197 138 q 242 113 218 113 q 304 137 267 113 q 375 195 342 161 q 432 265 408 229 q 465 329 456 301 m 510 418 q 594 594 574 521 q 613 728 615 668 q 584 791 611 789 q 532 763 557 793 q 491 692 507 733 q 468 606 475 650 q 462 517 461 563 q 473 453 463 472 q 490 427 483 433 q 510 418 497 421 z "},"P":{"ha":758,"x_min":14,"x_max":853,"o":"m 519 1022 q 522 1021 521 1021 l 525 1021 q 554 1038 531 1021 q 602 1071 578 1054 q 658 1097 626 1088 q 721 1106 689 1106 q 778 1092 753 1106 q 821 1057 804 1079 q 845 1006 838 1035 q 853 924 853 976 q 833 801 853 872 q 790 669 814 731 q 738 538 765 607 q 669 408 710 468 q 572 307 628 347 q 466 267 517 267 q 395 275 415 267 q 358 292 375 283 q 310 344 340 301 q 149 11 285 301 q 135 -3 144 3 q 117 -8 125 -8 q 88 -3 106 -8 q 54 10 71 1 q 26 30 38 18 q 14 56 14 42 l 14 63 q 197 488 15 67 q 389 938 379 910 q 399 982 399 965 q 392 1007 399 999 q 348 1003 386 1015 q 267 950 310 990 q 187 832 224 910 q 144 702 150 754 q 115 663 139 650 q 74 708 90 676 q 58 791 58 740 q 88 900 58 842 q 164 1004 117 958 q 270 1078 211 1050 q 381 1106 329 1106 q 467 1085 433 1106 q 519 1022 500 1064 m 385 403 q 469 409 433 375 q 536 495 504 443 q 595 612 568 547 q 642 737 622 676 q 674 847 663 797 q 682 940 686 896 q 649 983 678 983 q 597 958 619 983 q 548 885 574 932 q 506 805 522 838 q 449 688 489 772 q 396 567 410 603 q 374 478 382 531 q 385 403 365 426 z "},"Q":{"ha":632,"x_min":14,"x_max":782,"o":"m 14 265 q 35 424 14 335 q 93 607 56 514 q 184 790 131 700 q 302 949 238 879 q 442 1061 367 1018 q 581 1104 517 1104 q 681 1088 646 1104 q 738 1044 715 1072 q 772 978 761 1017 q 782 866 782 940 q 756 685 782 792 q 682 479 729 579 q 572 289 635 379 q 436 125 508 199 l 436 122 q 441 114 436 115 q 451 113 446 113 q 517 125 485 113 q 581 138 549 138 l 583 138 q 589 132 589 138 l 589 129 q 572 79 589 103 q 531 38 556 56 q 479 8 507 19 q 429 -3 451 -3 q 382 10 403 -3 q 338 24 361 24 q 280 10 307 24 q 211 -3 253 -3 q 131 22 169 -3 q 65 85 92 46 q 26 172 39 124 q 14 265 14 219 m 249 183 q 288 176 269 183 q 325 169 306 169 q 339 173 336 169 q 353 189 342 176 q 360 197 354 190 q 372 213 365 204 q 408 265 378 221 q 487 395 439 308 q 573 576 535 482 q 635 767 611 671 q 660 917 660 863 q 650 993 660 971 q 614 1015 640 1015 q 558 997 588 1015 q 479 926 529 979 q 374 783 429 874 q 263 578 318 693 q 188 376 208 463 q 174 182 168 289 q 179 176 176 176 q 186 176 182 176 q 217 180 201 176 q 249 183 232 183 z "},"R":{"ha":746,"x_min":14,"x_max":885,"o":"m 14 63 q 15 74 14 69 q 21 88 17 78 q 385 935 381 918 q 394 979 390 951 q 378 1011 399 1007 q 335 1001 358 1015 q 269 950 313 986 q 191 826 226 914 q 149 644 156 738 l 129 644 q 102 673 126 644 q 74 724 78 701 q 71 794 71 747 q 100 901 71 842 q 177 1008 129 961 q 286 1083 225 1054 q 396 1111 347 1111 q 480 1083 444 1111 q 538 1008 515 1056 q 574 1033 543 1008 q 651 1076 606 1058 q 751 1093 697 1093 q 844 1047 804 1093 q 885 922 885 1001 q 851 757 885 842 q 760 606 818 672 q 624 495 703 539 q 442 442 546 451 q 510 390 497 413 q 531 349 522 367 q 539 298 539 331 q 535 228 539 265 q 534 147 532 190 q 564 103 536 103 q 620 128 592 104 q 746 257 649 153 l 746 156 q 683 90 724 131 q 619 31 643 49 q 565 3 594 14 q 501 -8 535 -8 q 444 8 468 -8 q 405 49 419 24 q 384 104 390 74 q 378 167 378 135 q 385 233 378 200 q 390 303 392 267 q 382 350 388 339 q 329 389 376 361 q 216 119 229 149 q 187 52 203 89 q 159 3 171 15 q 124 -8 147 -8 q 89 -5 108 -8 q 53 7 69 -1 q 25 29 36 15 q 14 63 14 43 m 385 535 q 503 548 468 535 q 567 584 539 561 q 619 639 596 607 q 670 714 643 671 q 717 813 697 757 q 738 908 738 868 q 726 966 738 947 q 688 985 714 985 q 636 968 661 985 q 590 926 611 951 q 553 874 569 901 q 515 802 536 846 q 477 728 493 758 q 438 650 461 697 q 385 535 415 603 z "},"S":{"ha":708,"x_min":14,"x_max":878,"o":"m 404 368 q 376 353 394 354 q 338 347 358 351 q 285 326 317 342 q 227 287 253 310 q 184 235 201 264 q 167 173 167 206 q 188 119 167 140 q 250 99 208 99 q 338 120 292 99 q 421 177 385 142 q 478 259 457 213 q 500 344 500 306 q 494 408 500 383 q 402 494 488 433 q 277 601 317 556 q 238 689 238 647 q 256 780 238 731 q 304 875 274 829 q 376 960 335 921 q 464 1029 417 1000 q 561 1075 511 1058 q 655 1092 611 1092 q 738 1082 699 1092 q 808 1052 778 1072 q 858 999 839 1032 q 878 917 878 967 q 853 826 878 868 q 791 754 829 785 q 705 708 753 724 q 610 692 657 692 q 619 720 610 713 q 651 759 629 728 q 698 842 672 790 q 724 933 724 893 q 712 988 724 974 q 672 1001 700 1001 q 617 988 644 1001 q 536 930 590 974 q 449 821 482 886 q 417 716 417 756 q 431 656 417 676 q 542 574 444 635 q 663 462 639 514 q 686 347 686 410 q 649 217 686 283 q 552 102 611 151 q 420 25 493 53 q 290 -3 347 -3 q 185 10 232 -3 q 101 48 139 22 q 38 112 63 74 q 14 201 14 150 q 41 290 14 253 q 109 352 68 328 q 199 388 150 376 q 292 400 247 400 q 351 397 336 400 q 381 388 367 394 q 404 368 396 381 z "},"T":{"ha":675,"x_min":14,"x_max":1256,"o":"m 14 185 q 37 281 14 240 q 97 349 60 322 q 181 390 133 376 q 276 403 228 403 q 299 402 282 403 q 321 401 315 401 q 324 399 322 401 q 328 396 326 397 l 328 392 q 315 380 328 389 q 285 356 303 371 q 244 321 267 340 q 204 278 222 301 q 174 227 186 254 q 161 169 161 200 q 178 106 161 138 q 227 75 194 75 q 282 85 260 75 q 322 113 304 96 q 354 152 340 131 q 385 219 368 174 q 415 300 401 265 q 442 373 428 335 q 468 446 456 411 q 491 508 481 481 q 528 605 501 536 q 619 774 554 674 q 782 965 685 874 q 576 978 626 985 q 481 955 526 972 q 404 906 436 938 q 372 836 372 875 q 386 778 372 797 q 430 760 400 760 q 476 778 460 760 q 500 818 492 796 q 515 858 508 840 q 536 876 522 876 q 558 868 549 876 q 572 847 567 860 q 581 801 578 835 q 569 745 583 767 q 534 710 556 724 q 487 690 513 696 q 412 683 461 683 q 316 730 363 683 q 269 851 269 776 q 313 976 269 926 q 422 1056 357 1026 q 560 1096 486 1085 q 686 1107 633 1107 q 786 1101 739 1107 q 880 1090 833 1096 q 974 1078 926 1083 q 1067 1074 1021 1074 q 1157 1087 1114 1074 q 1239 1100 1200 1100 q 1256 1083 1256 1100 q 1234 1030 1256 1054 q 1183 989 1213 1006 q 1119 963 1153 972 q 903 951 1086 953 q 765 760 817 867 q 626 406 713 653 q 510 119 540 160 q 439 49 479 78 q 350 3 399 19 q 231 -10 301 -14 q 128 13 160 -6 q 70 56 96 31 q 29 115 44 82 q 14 185 14 147 z "},"U":{"ha":685,"x_min":13,"x_max":840,"o":"m 354 117 q 222 10 264 33 q 135 -14 181 -14 q 64 22 89 -14 q 45 138 39 58 q 199 563 51 217 q 353 944 346 908 q 353 992 360 979 q 313 1004 346 1004 q 238 962 281 1004 q 166 860 196 919 q 119 738 136 801 q 97 632 101 675 l 90 632 q 73 638 82 632 q 40 670 64 643 q 15 722 17 697 q 13 790 13 746 q 44 893 13 833 q 126 999 76 953 q 240 1072 176 1044 q 369 1100 303 1100 q 468 1062 435 1100 q 495 954 501 1024 q 361 580 489 885 q 222 244 233 275 q 211 182 211 213 q 235 151 211 151 q 275 164 258 151 q 305 194 292 176 q 351 272 318 211 q 397 360 383 332 q 692 1054 411 389 q 711 1085 701 1075 q 756 1091 721 1094 q 805 1080 790 1088 q 830 1060 819 1072 q 840 1032 840 1049 q 839 1019 840 1022 q 833 1004 838 1015 q 517 213 526 264 q 517 135 507 163 q 554 118 528 107 q 605 153 581 129 q 685 257 629 176 l 685 156 q 560 17 624 49 q 471 -14 497 -14 q 422 5 444 -14 q 385 47 400 24 q 363 89 371 69 q 354 117 356 108 z "},"V":{"ha":667,"x_min":14,"x_max":897,"o":"m 103 132 q 132 295 103 190 q 260 663 161 400 q 358 965 358 925 q 332 1006 357 1006 q 289 998 307 1007 q 255 975 271 989 q 208 926 239 961 q 160 858 176 890 q 133 790 144 825 q 114 718 121 754 q 103 649 107 682 q 90 642 101 642 l 85 642 q 31 706 49 674 q 14 794 14 739 q 47 908 14 850 q 130 1008 79 965 q 243 1077 181 1051 q 369 1103 306 1103 q 473 1068 433 1103 q 513 991 513 1033 q 381 586 513 949 q 263 209 250 224 q 302 210 276 194 q 340 239 328 226 q 376 277 353 251 q 413 317 400 303 q 451 363 425 332 q 482 401 478 394 q 457 465 465 438 q 449 531 449 493 q 464 626 449 569 q 505 746 479 683 q 567 870 531 808 q 644 981 603 932 q 732 1060 686 1029 q 821 1090 778 1090 q 881 1067 864 1090 q 897 1003 897 1043 q 888 921 897 963 q 862 838 878 879 q 826 758 846 797 q 781 676 807 719 q 738 606 754 632 q 695 538 722 579 q 660 485 668 496 q 645 464 653 474 q 626 438 638 454 q 665 426 636 426 q 713 443 694 426 q 740 465 732 460 q 760 471 749 471 q 781 453 774 471 q 788 424 788 436 q 773 379 788 397 q 737 349 758 361 q 690 333 715 338 q 629 327 664 328 q 551 335 594 326 q 496 274 549 332 q 410 178 443 215 q 333 88 378 140 q 266 15 288 36 q 210 -6 244 -6 q 157 7 176 -6 q 125 39 138 19 q 108 83 113 58 q 103 132 103 108 m 549 500 q 617 596 596 563 q 659 663 639 629 q 699 733 679 697 q 741 804 719 768 q 782 881 763 840 q 801 947 801 922 q 799 976 801 971 q 784 978 797 981 q 750 957 771 975 q 690 886 729 939 q 616 772 650 833 q 558 643 582 711 q 549 500 533 575 z "},"W":{"ha":871,"x_min":14,"x_max":1076,"o":"m 14 108 q 24 212 14 160 q 49 315 33 264 q 143 547 64 367 q 239 763 222 728 q 269 826 256 799 q 299 900 282 854 q 310 974 315 946 q 249 960 304 1001 q 153 841 193 918 q 90 669 114 764 q 83 663 89 663 q 75 663 79 663 q 69 663 74 663 q 65 664 67 663 q 25 711 36 686 q 14 783 14 736 q 43 888 14 829 q 119 993 72 946 q 224 1069 165 1040 q 324 1099 282 1099 q 389 1088 367 1099 q 428 1061 411 1078 q 453 1022 444 1044 q 453 946 463 999 q 319 612 444 893 q 181 271 194 331 q 184 216 168 211 q 360 453 200 221 l 635 1040 q 682 1074 649 1074 q 707 1070 693 1074 q 733 1060 721 1067 q 755 1044 746 1054 q 764 1021 764 1035 q 763 1014 764 1018 q 763 1008 763 1010 l 544 497 q 501 371 521 439 q 478 267 481 303 q 480 216 476 231 q 488 196 483 201 q 497 190 492 190 q 567 266 501 190 q 672 403 633 342 q 640 481 644 444 q 638 553 636 518 q 653 641 639 589 q 692 754 668 693 q 749 877 715 815 q 822 988 783 939 q 906 1068 861 1038 q 983 1099 950 1099 q 1032 1088 1017 1099 q 1057 1063 1047 1078 q 1072 1028 1067 1047 q 1076 973 1076 1010 q 1058 877 1076 936 q 1013 760 1040 818 q 954 647 986 701 q 880 525 922 593 q 822 431 838 457 q 884 438 869 432 q 913 452 899 444 q 942 466 928 460 q 968 472 956 472 q 987 457 981 472 q 993 429 993 442 q 984 400 993 417 q 961 369 975 383 q 882 341 947 356 q 775 338 817 326 q 638 176 768 338 q 486 2 507 14 q 436 -10 465 -10 q 385 12 407 -10 q 352 65 363 33 q 339 132 342 97 q 336 194 336 167 q 331 196 335 194 q 328 196 328 197 q 321 191 325 196 q 314 183 317 186 q 302 168 311 181 q 283 142 293 156 q 240 90 272 128 q 190 35 208 53 q 151 4 171 17 q 112 -8 132 -8 q 73 3 92 -8 q 41 31 54 14 q 21 68 28 47 q 14 108 14 89 m 738 493 q 795 578 751 510 q 892 749 839 647 q 962 911 944 851 q 960 974 979 971 q 922 956 942 976 q 880 905 901 936 q 838 836 858 874 q 799 765 817 799 q 763 683 782 731 q 737 602 744 635 q 730 538 729 569 q 738 493 731 506 z "},"X":{"ha":736,"x_min":14,"x_max":1039,"o":"m 14 74 q 22 92 14 81 q 404 569 31 104 q 416 704 414 654 q 420 808 418 754 q 423 901 422 861 q 422 957 424 942 q 417 985 421 972 q 403 1008 413 999 q 374 1018 394 1018 q 317 981 354 1018 q 269 895 279 944 q 258 819 260 846 q 257 763 257 793 q 261 699 257 732 q 265 629 265 665 q 208 651 232 629 q 167 706 183 674 q 143 772 151 738 q 135 846 135 807 q 159 937 135 885 q 224 1030 183 989 q 317 1096 265 1071 q 412 1121 369 1121 q 481 1109 454 1121 q 527 1077 507 1097 q 559 1030 547 1057 q 571 769 571 1003 q 656 856 621 815 q 728 938 692 896 q 803 1019 765 979 q 878 1094 840 1060 q 915 1110 899 1107 q 959 1113 931 1114 q 1002 1110 988 1113 q 1028 1103 1017 1108 q 1039 1089 1039 1099 q 1032 1069 1039 1078 q 990 1028 1018 1056 q 928 965 963 1000 q 855 890 893 929 q 782 816 817 851 q 719 753 747 781 q 661 690 692 725 q 612 634 631 656 q 579 596 593 613 q 556 563 565 579 q 553 326 553 508 q 560 133 553 144 q 599 132 567 121 q 649 161 631 143 q 736 257 668 179 l 736 156 q 678 86 700 108 q 633 45 657 64 q 581 13 608 26 q 515 0 553 0 q 454 28 478 0 q 419 95 431 56 q 407 177 408 135 q 403 368 406 219 q 131 27 138 33 q 119 15 125 21 q 110 7 113 10 q 103 2 108 4 q 97 0 99 0 q 70 7 85 0 q 43 24 56 14 q 22 48 31 35 q 14 74 14 61 z "},"Y":{"ha":547,"x_min":14,"x_max":828,"o":"m 167 -182 q 167 -172 167 -179 q 168 -165 167 -165 l 315 172 q 224 138 258 147 q 149 129 190 129 q 80 164 108 129 q 51 253 51 199 q 199 633 51 307 q 347 990 347 960 q 314 1014 347 1019 q 248 988 281 1008 q 187 930 215 968 q 140 847 158 892 q 113 753 122 801 q 97 661 103 706 l 90 654 l 88 654 l 85 654 q 29 722 44 686 q 14 815 14 758 q 42 927 14 871 q 117 1027 71 983 q 224 1097 164 1071 q 328 1122 283 1122 q 398 1113 372 1122 q 444 1088 424 1104 q 476 1047 464 1071 q 488 994 488 1022 q 481 941 488 967 q 346 629 474 915 q 209 313 218 343 q 209 263 200 282 q 254 259 218 244 q 308 294 290 274 q 340 335 326 314 q 686 1096 354 356 q 700 1107 690 1104 q 718 1110 710 1110 q 748 1105 729 1110 q 784 1091 767 1100 q 815 1069 801 1082 q 828 1042 828 1057 l 826 1039 q 824 1029 826 1036 q 821 1019 822 1022 l 308 -222 q 292 -248 303 -235 q 267 -261 282 -261 q 232 -256 250 -261 q 199 -240 214 -250 q 176 -215 185 -229 q 167 -182 167 -200 z "},"Z":{"ha":665,"x_min":14,"x_max":1057,"o":"m 14 125 q 33 174 14 151 l 807 972 l 800 979 l 474 979 q 436 990 454 979 q 403 1019 418 1001 q 381 1056 389 1036 q 372 1094 372 1076 q 376 1108 372 1104 q 463 1116 379 1113 q 737 1115 546 1119 q 953 1104 928 1111 q 1001 1085 978 1097 q 1040 1054 1024 1072 q 1048 1003 1057 1036 q 713 654 1039 971 q 317 253 388 338 q 221 132 246 168 q 571 121 553 132 q 604 94 589 110 q 630 59 619 78 q 640 26 640 40 q 636 13 640 17 q 621 1 632 8 q 569 1 604 1 q 490 -1 535 0 q 397 -2 446 -1 q 304 -3 349 -3 q 225 -5 260 -4 q 174 -6 190 -6 l 163 -6 q 113 6 139 -6 q 65 35 86 17 q 28 77 43 54 q 14 125 14 100 z "},"\\":{"ha":278,"x_min":-4125,"x_max":279,"o":"m -4125 -529 q -2990 -333 -3647 -394 q -1344 -238 -2332 -271 q -218 -206 -357 -206 q -30 -188 -79 -206 q 56 -138 19 -171 q 115 -60 93 -106 q 143 26 138 -14 q 140 116 149 65 q 95 185 132 167 q 0 156 58 203 l 0 257 q 139 286 72 311 q 234 199 206 261 q 271 32 263 138 q 240 -190 279 -74 q 13 -431 200 -307 q -1171 -624 -175 -556 q -2721 -824 -2167 -692 q -3575 -1104 -3275 -957 q -3733 -721 -3611 -840 q -4125 -529 -3854 -601 z "},"a":{"ha":594,"x_min":-6,"x_max":594,"o":"m 275 79 q 213 24 242 47 q 142 1 185 1 q 73 19 100 1 q 28 63 46 36 q 3 124 11 90 q -6 206 -6 158 q 18 331 -6 254 q 84 475 42 407 q 185 589 126 543 q 289 635 244 635 q 350 628 333 635 q 380 615 367 622 q 403 602 393 608 q 422 596 414 596 q 438 602 431 596 q 453 616 444 608 q 472 630 461 624 q 496 636 482 636 q 517 634 504 636 q 541 628 529 632 q 561 616 553 624 q 569 597 569 608 q 543 487 569 542 q 485 378 517 432 q 428 269 454 324 q 404 176 403 214 q 409 132 406 139 q 417 120 413 125 q 432 117 422 115 q 460 134 442 119 q 485 154 479 149 q 506 173 492 160 q 535 200 519 186 q 569 233 550 214 q 594 257 589 253 l 594 156 q 539 98 563 124 q 488 49 515 72 q 431 11 461 26 q 368 -4 400 -4 q 330 6 343 -4 q 308 31 317 17 q 294 58 300 44 q 275 79 288 72 m 135 190 q 135 165 135 179 q 138 137 135 150 q 149 114 140 124 q 169 104 157 104 q 194 111 182 104 q 217 130 206 118 q 239 157 228 142 q 268 201 250 172 q 296 253 286 231 q 320 303 306 276 q 347 360 335 331 q 369 419 360 389 q 378 478 378 449 l 378 507 q 360 526 369 518 q 337 533 351 533 q 310 528 322 533 q 260 487 299 522 q 178 367 222 451 q 135 190 135 282 z "},"b":{"ha":501,"x_min":-7,"x_max":501,"o":"m 224 160 q 175 234 189 210 q 157 287 161 258 q 153 349 153 315 q 160 423 153 382 q 185 501 168 464 q 229 563 201 538 q 292 588 257 588 q 349 576 326 588 q 389 544 372 564 q 414 499 406 524 q 422 440 422 474 q 415 366 422 406 q 398 297 407 326 q 371 204 389 267 q 441 215 418 204 q 501 257 464 226 l 501 156 q 433 117 461 126 q 325 107 404 107 q 244 28 288 58 q 145 -1 201 -1 q 60 24 89 -1 q 16 89 31 50 q -3 173 1 128 q -7 261 -7 218 q 3 353 -7 304 q 31 451 14 403 q 68 544 47 499 q 112 640 89 590 q 160 738 135 689 q 213 833 186 786 q 271 925 240 879 q 339 1021 301 971 q 393 1042 360 1042 q 415 1040 403 1042 q 437 1033 426 1038 q 454 1020 447 1028 q 461 1001 461 1013 q 460 994 461 999 q 460 989 460 990 q 142 426 175 558 q 111 222 110 294 q 115 132 113 150 q 125 101 117 114 q 157 88 133 88 q 202 110 181 88 q 224 160 224 132 m 264 244 q 306 353 292 306 q 318 435 319 401 q 312 487 317 468 q 289 508 307 506 q 260 490 271 510 q 240 441 249 469 q 228 367 232 413 q 232 301 225 322 q 246 267 239 281 q 264 244 253 254 z "},"c":{"ha":507,"x_min":-10,"x_max":507,"o":"m 351 394 q 374 456 364 426 q 382 522 383 486 q 372 560 381 558 q 348 561 364 561 q 308 541 332 561 q 251 477 285 521 q 193 383 218 433 q 153 275 168 333 q 136 163 138 217 q 163 93 135 110 q 224 76 190 76 q 296 92 257 76 q 370 131 335 107 q 437 185 406 156 q 507 257 468 215 l 507 156 q 422 72 458 97 q 345 30 386 47 q 261 3 304 13 q 143 1 218 -6 q 29 58 68 8 q -10 174 -10 107 q 19 326 -10 240 q 96 479 47 411 q 211 592 144 547 q 331 638 278 638 q 408 630 383 638 q 452 607 433 622 q 482 570 471 592 q 493 526 493 549 q 485 477 493 504 q 465 424 478 450 q 434 380 451 399 q 397 361 417 361 q 369 368 386 361 q 351 390 351 375 l 351 394 z "},"d":{"ha":596,"x_min":-7,"x_max":744,"o":"m 610 979 q 637 1000 617 994 q 672 1006 657 1006 q 694 1005 682 1006 q 718 1001 707 1004 q 737 991 729 999 q 744 971 744 983 q 744 964 744 968 q 743 960 744 960 l 443 263 q 417 147 410 172 q 438 121 425 121 q 480 146 450 121 q 596 257 510 171 l 596 156 q 510 65 557 107 q 435 12 463 24 q 381 0 407 0 q 331 14 354 0 q 289 74 308 28 q 226 20 257 40 q 153 0 194 0 q 85 16 113 0 q 38 55 57 32 q 6 110 18 78 q -4 222 -7 142 q 49 394 -1 301 q 155 539 100 488 q 246 603 210 590 q 324 615 282 615 q 424 576 367 614 l 610 979 m 379 460 q 369 497 379 482 q 333 513 358 513 q 282 495 307 513 q 235 449 257 478 q 192 385 214 421 q 158 314 171 349 q 138 235 146 279 q 140 149 129 190 q 174 108 150 108 q 217 121 199 108 q 250 152 235 133 q 277 192 265 171 q 294 226 289 214 q 310 263 300 239 q 331 315 319 288 q 352 367 342 342 q 369 409 363 392 q 378 433 376 426 q 379 460 379 440 z "},"e":{"ha":521,"x_min":-6,"x_max":521,"o":"m 149 251 q 148 128 124 175 q 216 82 172 82 q 301 99 260 82 q 382 141 343 115 q 463 203 421 167 q 521 257 504 240 l 521 156 q 441 87 479 114 q 360 40 403 60 q 272 10 317 21 q 183 0 226 0 q 106 17 140 0 q 46 57 71 33 q 8 117 21 81 q -6 209 -6 154 q 28 345 -6 264 q 115 491 61 426 q 239 598 169 556 q 372 640 308 640 q 472 603 436 640 q 507 511 507 567 q 485 406 507 456 q 425 319 463 357 q 338 259 388 282 q 242 233 289 236 q 149 251 196 231 m 175 331 q 238 307 214 307 q 296 328 263 307 q 353 381 329 349 q 390 452 376 414 q 403 526 404 490 q 372 561 401 561 q 278 503 343 561 q 175 331 214 444 z "},"f":{"ha":407,"x_min":-56,"x_max":514,"o":"m 218 406 q 241 378 232 386 q 258 364 250 371 q 271 351 267 357 q 289 289 286 325 q 289 224 292 253 q 301 211 293 213 q 320 210 308 210 q 352 219 332 210 q 407 257 372 228 l 407 156 q 289 108 343 114 q 278 44 285 83 q 259 -40 271 4 q 231 -128 247 -83 q 191 -208 214 -172 q 138 -265 168 -243 q 69 -287 107 -287 q 8 -268 32 -287 q -31 -219 -17 -249 q -50 -156 -44 -190 q -53 -64 -56 -122 q -43 51 -50 -6 q -24 163 -36 107 q 5 274 -12 219 q 47 376 22 329 l 353 951 q 384 984 364 971 q 425 997 404 997 q 447 997 433 997 q 477 994 463 997 q 503 984 492 990 q 514 965 514 978 q 513 958 514 960 q 485 909 504 943 q 443 833 467 875 q 394 744 419 792 q 345 656 368 697 q 289 551 322 614 q 247 469 256 489 q 230 433 238 450 q 219 408 222 415 l 218 406 m 150 204 q 143 206 149 206 q 140 205 142 206 q 136 204 138 204 q 79 47 100 129 q 56 -101 58 -35 q 63 -183 53 -167 q 101 -179 74 -199 q 140 -130 128 -160 q 160 -63 151 -100 q 175 8 169 -26 q 184 69 181 42 q 188 111 188 97 l 188 153 q 156 199 183 158 q 150 204 151 204 z "},"g":{"ha":586,"x_min":-4,"x_max":586,"o":"m 222 61 q 117 38 147 38 q 61 52 86 38 q 22 91 36 67 q 1 146 7 115 q -4 213 -4 176 q 8 296 -4 249 q 44 390 21 343 q 98 482 67 438 q 167 560 129 526 q 247 615 204 594 q 322 635 289 635 q 372 628 356 635 q 401 615 389 622 q 422 601 413 607 q 438 594 431 594 q 441 595 439 594 q 444 596 443 596 q 462 617 447 603 q 482 633 476 631 q 490 635 483 635 q 501 635 497 635 q 524 633 511 635 q 550 628 538 632 q 571 615 563 624 q 579 594 579 607 q 579 588 579 592 q 578 583 579 583 l 372 106 q 586 257 474 143 l 586 156 q 488 69 550 111 q 329 -12 426 28 q 283 -117 301 -69 q 239 -207 265 -164 q 176 -279 213 -250 q 98 -308 140 -308 q 32 -291 56 -308 q 8 -221 8 -274 q 44 -110 8 -168 q 110 -28 79 -53 q 156 3 142 -3 q 190 19 169 10 q 215 35 210 28 q 222 61 219 43 m 203 -51 q 124 -121 157 -75 q 90 -195 92 -167 q 103 -221 88 -224 q 134 -200 118 -218 q 164 -160 150 -182 q 186 -116 178 -139 q 203 -51 194 -93 m 278 231 q 386 519 399 478 q 374 535 379 532 q 354 539 369 539 q 312 519 339 539 q 253 461 285 499 q 195 381 221 424 q 153 293 169 339 q 136 216 136 247 q 144 163 136 185 q 173 140 153 140 q 208 149 193 140 q 237 172 224 158 q 260 202 250 186 q 278 231 271 218 z "},"h":{"ha":588,"x_min":-85,"x_max":588,"o":"m -85 49 q -83 61 -85 57 q -78 75 -82 65 l 331 1035 q 341 1051 336 1046 q 357 1067 346 1057 l 386 1067 q 410 1065 396 1067 q 439 1058 425 1063 q 463 1043 453 1053 q 472 1018 472 1033 l 472 1015 l 286 582 q 389 607 342 603 q 458 608 436 611 q 494 595 479 604 q 519 572 510 586 q 525 526 529 558 q 439 320 521 493 q 353 117 357 147 q 390 100 350 88 q 459 138 431 113 q 507 180 488 163 q 588 257 526 197 l 588 156 q 452 31 511 64 q 332 0 393 -3 q 253 29 271 3 q 231 72 235 56 q 228 112 228 88 q 237 170 228 136 q 256 226 246 204 q 282 277 267 247 q 315 340 297 307 q 347 403 332 374 q 369 451 363 433 q 376 490 376 469 q 354 510 376 510 q 293 484 332 510 q 235 433 254 458 q 209 384 228 419 q 170 308 190 349 q 118 201 150 268 q 75 110 86 135 q 49 51 64 85 q 24 5 35 18 q -8 -8 14 -8 q -33 -4 -19 -8 q -58 7 -46 0 q -77 25 -69 14 q -85 49 -85 36 z "},"i":{"ha":368,"x_min":-15,"x_max":394,"o":"m 299 553 q 278 511 292 539 q 249 451 264 483 q 220 391 233 419 q 183 314 207 363 q 146 223 158 265 q 137 151 133 181 q 156 117 140 121 q 204 128 171 114 q 368 257 238 143 l 368 156 q 235 42 279 68 q 170 8 190 17 q 120 0 150 0 q 65 14 90 0 q 22 51 39 28 q -6 102 4 74 q -15 159 -15 131 q -3 244 -15 188 q 151 556 8 300 q 176 585 163 576 q 205 594 189 594 q 235 592 221 594 q 263 585 249 590 q 288 572 278 581 q 299 553 299 564 m 214 676 q 222 724 214 700 q 246 765 231 747 q 282 794 261 783 q 330 806 303 806 q 376 791 357 806 q 394 750 394 776 q 384 700 394 724 q 357 657 374 676 q 319 625 340 638 q 273 613 297 613 q 231 633 249 613 q 214 676 214 653 z "},"j":{"ha":299,"x_min":-292,"x_max":311,"o":"m -71 46 q 106 571 90 546 q 154 596 122 596 q 181 594 167 596 q 210 588 196 593 q 225 541 224 583 q 54 90 226 499 q 131 114 99 96 q 194 157 163 132 q 251 208 225 182 q 299 257 276 233 l 299 156 q 217 64 257 97 q 128 10 178 31 q 29 -19 79 -11 q -13 -116 6 -68 q -59 -207 -32 -164 q -123 -279 -86 -250 q -203 -308 -160 -308 q -269 -290 -246 -308 q -292 -216 -292 -271 q -240 -87 -292 -161 q -71 46 -187 -14 m -97 -65 q -174 -119 -149 -83 q -203 -178 -199 -154 q -206 -216 -207 -201 q -192 -224 -204 -231 q -163 -199 -179 -217 q -134 -160 -147 -181 q -112 -117 -121 -139 q -97 -65 -104 -94 m 138 688 q 171 776 138 738 q 245 814 204 814 q 299 797 286 814 q 311 752 311 779 q 302 703 311 725 q 278 664 293 681 q 242 637 263 647 q 190 628 221 626 q 149 647 160 631 q 138 688 138 664 z "},"k":{"ha":542,"x_min":-90,"x_max":542,"o":"m 371 1108 q 388 1126 376 1119 q 413 1133 400 1133 q 439 1131 425 1133 q 465 1124 453 1129 q 485 1108 478 1118 q 493 1082 493 1097 q 492 1066 493 1071 q 486 1050 492 1061 l 211 468 q 243 472 236 468 q 260 481 250 475 q 317 520 269 486 q 390 575 364 554 q 440 612 417 596 q 476 628 463 628 q 517 615 496 628 q 538 579 538 601 q 515 537 538 560 q 460 490 493 514 q 390 444 428 467 q 319 405 351 422 q 264 376 286 388 q 242 361 242 364 q 253 349 242 357 q 281 331 265 342 q 309 306 296 319 q 328 267 322 292 q 335 207 333 243 q 347 146 338 171 q 392 135 356 121 q 467 184 429 149 q 542 257 506 219 l 542 156 q 485 93 510 118 q 434 47 461 68 q 376 13 407 26 q 308 0 346 0 q 243 24 271 0 q 209 90 215 49 q 201 151 203 132 q 197 208 200 169 q 189 258 193 246 q 176 280 185 271 q 156 289 168 289 q 151 289 154 289 q 147 288 149 289 q 122 234 144 283 q 86 151 100 185 q 53 72 72 117 q 21 14 35 28 q -19 0 7 0 q -65 13 -40 0 q -90 51 -90 26 l 371 1108 z "},"l":{"ha":329,"x_min":-21,"x_max":517,"o":"m 442 1138 q 463 1137 450 1138 q 488 1132 475 1136 q 508 1121 500 1128 q 517 1101 517 1114 q 517 1096 517 1100 q 515 1093 517 1093 q 131 206 146 257 q 126 138 115 156 q 153 121 136 121 q 230 170 171 121 q 329 257 289 219 l 329 156 q 268 95 292 119 q 217 49 244 71 q 159 14 189 28 q 98 0 129 0 q 44 15 67 0 q 8 55 22 31 q -14 108 -7 79 q -21 167 -21 136 q -9 236 -21 197 q 343 1054 3 275 q 379 1116 361 1094 q 442 1138 397 1138 z "},"m":{"ha":710,"x_min":-87,"x_max":710,"o":"m -87 57 l 156 608 q 171 630 163 625 q 197 635 179 635 q 226 630 214 635 q 247 618 238 625 q 263 601 256 611 q 283 582 271 592 q 338 605 311 594 q 389 615 365 615 q 425 609 413 615 q 449 595 438 603 q 470 581 460 588 q 492 575 481 575 q 518 580 506 575 q 543 591 531 585 q 568 603 556 597 q 593 608 581 608 q 619 605 606 608 q 646 595 633 601 q 667 578 658 589 q 667 534 675 568 q 653 488 658 500 q 626 433 647 476 q 581 342 604 390 q 537 251 557 294 q 509 193 517 208 q 495 160 501 178 q 489 130 489 143 q 494 109 489 117 q 511 101 500 101 q 533 108 522 101 q 559 127 543 115 q 593 153 575 139 q 628 183 611 168 q 662 213 644 197 q 710 257 679 229 l 710 156 q 644 89 669 114 q 589 44 618 64 q 526 10 560 24 q 446 1 492 -4 q 383 34 400 6 q 367 97 367 63 q 378 167 367 131 q 401 226 390 203 q 426 283 411 250 q 459 352 442 315 q 492 422 476 389 q 503 472 507 454 q 484 494 500 490 q 444 478 468 499 q 232 25 419 458 q 217 7 225 8 q 197 6 208 6 q 172 7 185 6 q 149 13 160 8 q 131 24 139 17 q 124 44 124 32 q 296 461 125 56 q 256 488 294 501 q 28 25 218 475 q 9 2 18 6 q -15 -1 0 -1 q -37 2 -25 -1 q -61 13 -50 6 q -80 29 -72 19 q -87 51 -87 39 l -87 57 z "},"n":{"ha":511,"x_min":-85,"x_max":511,"o":"m -85 49 q -84 57 -85 51 q -83 64 -83 63 q 155 616 138 596 q 190 638 172 636 q 223 631 208 639 q 248 613 238 622 q 267 596 258 604 q 281 588 275 588 q 335 601 308 588 q 384 614 361 614 q 424 610 407 614 q 454 596 440 606 q 477 572 468 586 q 486 544 486 558 q 485 526 486 531 q 401 353 483 521 q 313 165 319 186 q 306 122 306 143 q 326 101 306 101 q 363 113 347 101 q 424 169 379 124 q 511 257 469 214 l 511 156 q 455 94 479 118 q 402 49 431 69 q 343 14 374 28 q 274 0 313 0 q 210 31 236 0 q 189 124 185 61 q 339 504 193 186 l 339 511 q 332 524 339 522 q 315 525 325 525 q 267 506 288 525 q 229 467 246 486 q 203 415 222 451 q 165 336 185 378 q 113 223 144 294 q 69 124 81 151 q 44 63 58 97 q 21 14 31 28 q -8 0 11 0 q -33 3 -19 0 q -58 11 -47 6 q -77 26 -69 17 q -85 49 -85 35 z "},"o":{"ha":558,"x_min":-10,"x_max":558,"o":"m -10 169 q 17 320 -10 239 q 92 471 44 401 q 206 587 140 540 q 331 633 272 633 q 415 618 389 633 q 458 578 442 603 q 482 521 475 553 q 489 448 489 489 q 474 360 489 407 q 451 290 460 314 q 439 257 443 265 q 430 239 435 249 q 422 220 425 229 q 418 207 418 211 q 428 199 418 200 q 461 201 439 197 q 502 216 483 204 q 558 257 521 228 l 558 156 q 460 98 494 104 q 393 90 426 92 q 342 89 360 89 q 323 78 340 89 q 285 51 306 67 q 244 25 265 36 q 200 7 224 14 q 122 0 176 0 q 29 47 68 0 q -10 169 -10 94 m 124 165 q 124 137 124 153 q 129 108 125 121 q 143 85 133 94 q 168 75 153 75 q 201 83 183 75 q 236 105 219 92 q 265 133 253 118 q 278 163 278 149 q 265 216 278 190 q 251 269 251 242 q 270 353 251 311 q 329 415 289 396 q 360 427 343 422 q 386 447 378 432 q 398 478 394 460 q 399 519 401 496 q 385 553 396 542 q 358 564 375 564 q 309 538 340 564 q 242 467 278 511 q 181 373 207 424 q 139 269 154 322 q 124 165 124 215 z "},"p":{"ha":546,"x_min":-219,"x_max":546,"o":"m -219 -247 q -216 -237 -218 -244 q -212 -228 -214 -231 l 139 585 q 158 618 146 600 q 194 634 171 636 q 237 628 218 632 q 264 613 256 624 q 272 592 272 603 q 273 580 272 581 q 276 578 274 579 q 282 578 279 578 q 320 585 301 578 q 362 592 339 592 q 405 581 385 592 q 439 553 425 571 q 460 513 453 536 q 467 445 467 490 q 440 337 467 400 q 389 214 414 274 q 422 200 404 200 q 457 206 440 200 q 488 221 474 213 q 546 257 503 229 l 546 156 q 460 112 513 128 q 311 106 408 96 q 277 69 296 88 q 237 37 258 51 q 192 13 215 22 q 144 2 168 3 q 96 15 121 1 q 47 53 71 29 l -111 -272 q -123 -289 -118 -286 q -139 -292 -128 -292 q -160 -289 -146 -292 q -187 -281 -174 -286 q -210 -269 -200 -276 q -219 -250 -219 -261 l -219 -247 m 100 153 q 108 123 100 135 q 129 111 115 111 q 150 111 143 111 q 194 145 157 111 q 278 263 231 179 q 327 410 325 347 q 316 482 329 474 q 287 490 303 490 q 249 470 271 490 q 206 419 226 450 q 165 349 185 388 q 131 272 146 310 q 108 203 117 235 q 100 153 100 171 z "},"q":{"ha":582,"x_min":-7,"x_max":582,"o":"m 182 4 q 81 9 114 -3 q 28 46 47 21 q 1 108 8 71 q -7 190 -7 146 q 5 282 -7 233 q 38 379 17 331 q 88 474 58 428 q 154 556 118 521 q 233 613 190 592 q 313 635 275 635 q 374 626 351 635 q 424 603 396 618 q 451 626 439 618 q 485 635 464 635 q 508 632 494 635 q 535 624 522 629 q 556 609 547 618 q 565 588 565 600 q 565 581 565 585 q 564 576 564 578 q 360 103 364 119 q 408 113 376 96 q 481 165 439 131 q 582 257 524 200 l 582 156 q 461 47 519 85 q 360 -6 403 8 q 362 -29 360 -8 q 365 -101 364 -50 q 354 -183 367 -151 q 319 -242 342 -215 q 267 -284 297 -268 q 197 -300 238 -300 q 129 -266 156 -300 q 107 -169 103 -232 q 182 4 111 -107 m 264 -18 q 242 -41 254 -18 q 218 -94 229 -64 q 199 -151 207 -124 q 192 -190 192 -179 q 196 -216 192 -201 q 219 -231 200 -231 q 251 -216 238 -231 q 274 -181 265 -201 q 285 -115 282 -161 q 287 -53 289 -68 q 279 -28 285 -39 q 264 -18 274 -18 m 386 507 q 375 527 386 518 q 333 533 364 536 q 262 488 301 529 q 192 387 222 446 q 141 258 163 328 q 130 144 119 188 q 166 102 140 101 q 208 115 192 103 q 238 146 225 128 q 260 183 251 164 q 276 219 269 203 q 298 274 282 235 q 331 359 314 314 q 364 444 349 404 q 382 492 379 483 q 385 503 385 501 q 386 507 386 506 z "},"r":{"ha":504,"x_min":0,"x_max":504,"o":"m 294 461 q 282 482 294 481 q 247 481 269 483 q 218 461 224 479 q 111 286 176 378 q 0 156 46 194 l 0 257 q 52 330 31 293 q 97 403 74 367 q 138 488 119 439 q 112 528 115 511 q 108 562 108 544 q 116 605 108 579 q 139 651 124 631 q 175 685 154 672 q 224 699 196 699 q 258 683 254 699 q 261 647 261 667 q 269 612 261 628 q 317 596 278 596 q 363 599 340 596 q 415 602 386 603 q 457 597 444 601 q 476 581 469 592 q 482 558 482 569 q 478 532 482 547 q 455 481 474 517 q 416 403 436 444 q 378 326 396 363 q 350 269 360 289 q 327 218 340 250 q 314 166 314 186 q 317 140 314 146 q 335 133 321 133 q 370 147 349 133 q 504 257 392 161 l 504 156 q 327 16 357 32 q 271 0 297 0 q 227 10 244 0 q 197 35 210 19 q 178 69 185 50 q 176 143 172 89 q 294 461 181 197 z "},"s":{"ha":500,"x_min":0,"x_max":500,"o":"m 42 165 q 0 156 11 157 l 0 257 q 67 350 24 314 q 81 360 75 357 q 90 365 86 363 q 99 373 94 368 q 111 389 104 378 l 297 676 q 319 699 306 690 q 349 708 332 708 q 365 704 356 708 q 384 693 375 700 q 399 677 393 686 q 406 660 406 668 q 397 631 406 643 q 376 604 388 618 q 356 572 365 590 q 347 524 347 554 q 354 462 347 493 q 370 400 361 431 q 386 338 379 369 q 393 264 393 307 q 379 161 393 221 q 500 257 415 178 l 500 156 q 395 64 433 94 q 309 16 357 33 q 226 -1 261 -1 q 160 12 190 -1 q 107 48 131 25 q 67 101 83 71 q 42 165 51 132 m 124 181 q 146 126 124 151 q 197 100 168 100 q 244 122 228 100 q 268 172 261 143 q 276 233 275 201 q 278 288 278 264 q 274 366 278 313 q 271 497 271 419 q 240 460 253 478 q 213 421 228 442 q 186 382 199 400 q 169 357 174 364 q 169 350 169 354 q 168 344 168 346 q 175 310 168 326 q 182 279 182 294 q 176 252 182 264 q 160 230 169 240 q 140 211 150 219 q 124 197 131 203 l 124 181 l 124 181 z "},"t":{"ha":424,"x_min":0,"x_max":479,"o":"m 47 203 q 0 156 26 181 l 0 257 q 62 336 39 304 q 103 399 85 368 q 146 497 121 431 q 81 504 96 496 q 55 524 67 513 q 43 557 43 536 q 77 592 43 581 q 186 606 111 603 l 344 910 q 369 935 354 929 q 401 942 385 942 q 430 940 417 942 q 454 934 443 939 q 472 920 465 929 q 477 895 479 911 q 338 607 475 879 q 422 576 408 601 q 438 535 436 550 q 428 514 440 519 q 405 507 415 508 q 379 504 394 506 q 347 502 364 503 q 315 501 331 501 q 285 500 299 500 q 194 268 224 374 q 176 128 165 163 q 208 92 188 94 q 258 108 229 90 q 338 171 288 125 q 424 257 388 217 l 424 156 q 360 93 386 118 q 306 48 335 68 q 246 15 278 28 q 176 1 214 1 q 115 17 139 1 q 75 60 90 33 q 51 117 60 86 q 47 203 43 149 z "},"u":{"ha":522,"x_min":-46,"x_max":522,"o":"m 190 83 q 174 72 189 82 q 142 49 158 61 q 111 26 126 36 q 78 11 96 17 q 37 6 60 6 q -1 17 14 6 q -26 44 -17 28 q -41 82 -36 61 q -37 146 -46 103 q 121 589 -28 189 q 139 622 128 608 q 172 635 150 635 q 196 633 182 635 q 222 626 210 631 q 242 612 233 621 q 246 581 250 603 q 224 519 242 560 q 188 432 207 478 q 151 345 168 386 q 124 283 133 304 q 108 234 115 263 q 101 179 101 206 q 123 158 101 153 q 161 179 144 163 q 184 210 178 196 q 203 256 190 225 q 233 324 217 286 q 268 403 250 361 q 303 483 286 444 q 332 551 319 521 q 350 593 344 581 q 360 616 356 606 q 376 633 365 626 q 425 631 411 633 q 451 624 439 629 q 472 608 464 618 q 479 582 479 597 q 453 507 472 551 q 415 413 435 463 q 376 318 394 363 q 349 253 358 274 q 329 198 340 232 q 318 144 318 164 q 338 117 318 125 q 379 120 358 108 q 435 167 400 132 q 522 257 469 203 l 522 156 q 412 50 439 71 q 355 15 385 29 q 299 0 325 0 q 258 13 274 0 q 229 42 242 26 q 194 83 217 57 l 190 83 z "},"v":{"ha":539,"x_min":-12,"x_max":539,"o":"m 153 633 q 174 631 161 633 q 199 624 188 629 q 218 612 210 619 q 217 569 226 604 q 187 480 207 533 q 149 370 167 426 q 121 257 132 314 q 110 166 110 200 q 114 113 110 132 q 135 94 118 94 q 168 102 151 94 q 199 121 185 110 q 224 146 214 132 q 238 172 235 160 q 233 267 232 217 q 243 358 235 317 q 267 445 251 399 q 307 533 282 492 q 366 604 332 575 q 440 633 400 633 q 497 604 481 633 q 514 533 514 575 q 492 431 514 490 q 449 336 471 372 q 417 285 426 300 q 398 257 407 271 q 363 201 389 243 q 396 192 374 192 q 444 201 418 192 q 539 257 471 211 l 539 156 q 409 106 471 111 q 292 115 347 101 q 197 34 226 51 q 143 8 168 17 q 83 0 118 0 q 22 24 47 0 q -8 86 -3 47 q -12 157 -12 125 q -2 248 -12 189 q 25 365 8 307 q 63 478 42 422 q 97 570 83 533 q 122 620 111 607 q 153 633 132 633 m 317 269 q 369 345 353 317 q 400 405 385 374 q 426 468 415 436 q 436 522 436 500 q 419 544 436 544 q 384 519 403 544 q 353 460 365 494 q 330 390 340 426 q 317 269 319 353 z "},"w":{"ha":792,"x_min":-25,"x_max":792,"o":"m 190 640 q 213 638 200 640 q 236 629 225 635 q 256 615 247 624 q 264 596 264 607 q 263 580 264 585 q 183 394 263 575 q 105 168 103 213 q 113 122 107 124 q 134 121 119 121 q 167 135 149 121 q 200 170 185 150 q 228 213 215 190 q 250 250 240 235 q 279 319 258 269 q 324 426 300 369 q 368 532 347 482 q 396 599 389 582 q 413 628 403 615 q 438 640 422 640 q 461 637 447 640 q 486 626 475 633 q 506 610 497 619 q 510 580 514 601 q 489 512 506 558 q 454 413 472 465 q 419 315 436 361 q 396 247 403 268 q 383 201 389 225 q 378 153 378 176 q 384 116 378 131 q 409 101 390 101 q 449 113 428 101 q 488 143 469 125 q 540 210 507 161 q 519 343 519 296 q 526 440 518 390 q 553 535 535 489 q 603 615 572 582 q 672 647 635 647 q 733 626 710 647 q 757 568 757 606 q 747 485 757 531 q 721 394 738 439 q 683 306 704 349 q 640 224 663 264 q 661 208 651 211 q 693 205 671 204 q 746 225 715 206 q 792 257 776 244 l 792 156 q 753 131 768 138 q 722 122 739 125 q 674 117 706 118 q 590 135 643 115 q 510 67 543 93 q 441 21 478 42 q 364 0 404 0 q 297 27 324 0 q 250 90 271 54 l 244 90 q 159 27 206 54 q 72 0 113 0 q 15 15 31 0 q -10 53 -1 31 q -22 102 -19 76 q -19 176 -25 128 q -1 253 -12 225 q 24 318 10 282 q 55 394 39 354 q 85 469 71 433 q 112 534 100 506 q 129 576 124 563 q 151 622 142 604 q 190 640 160 640 m 599 303 q 651 422 636 385 q 676 497 665 460 q 685 552 686 533 q 671 571 683 571 q 644 556 658 571 q 619 514 629 540 q 600 428 610 488 q 599 303 590 368 z "},"x":{"ha":624,"x_min":0,"x_max":640,"o":"m 6 53 q 34 106 6 74 q 99 175 63 139 q 172 247 136 211 q 232 310 208 282 q 215 441 221 389 q 197 476 210 493 q 171 431 185 460 q 133 354 157 401 q 85 262 110 307 q 38 192 61 217 q 0 156 15 168 l 0 257 q 78 422 44 339 q 131 544 113 506 q 169 606 149 583 q 229 628 190 628 q 291 599 268 628 q 322 534 314 569 q 340 429 331 499 q 549 626 538 619 q 572 633 561 633 q 594 633 583 633 q 615 630 606 632 q 633 622 625 628 q 640 606 640 617 q 633 589 640 596 l 364 307 q 377 225 371 258 q 388 167 383 192 q 403 128 393 142 q 432 115 413 115 q 477 131 451 115 q 549 188 503 146 q 624 257 596 231 l 624 156 q 546 72 579 104 q 469 19 513 39 q 387 0 426 0 q 325 17 347 0 q 290 61 303 35 q 269 119 276 88 q 251 189 261 151 q 201 139 226 169 q 149 77 175 108 q 97 23 122 46 q 57 0 72 0 q 21 17 36 0 q 6 53 6 33 z "},"y":{"ha":514,"x_min":-53,"x_max":514,"o":"m 164 17 q 169 50 169 35 q 25 3 60 0 q -28 37 -10 6 q -22 172 -46 68 q 24 334 1 275 q 67 446 47 393 q 112 554 86 499 q 143 618 138 610 q 158 634 149 626 q 178 642 167 642 q 204 638 190 642 q 231 628 218 635 q 252 613 243 622 q 258 587 261 603 q 239 538 254 571 q 206 468 224 504 q 147 326 189 432 q 100 177 106 219 q 112 135 94 135 q 138 140 129 135 q 156 153 147 146 q 170 169 164 161 q 376 603 176 176 q 415 635 392 635 q 450 633 438 635 q 473 625 463 631 q 491 611 483 619 q 492 575 499 603 q 471 512 485 547 q 440 431 457 476 q 402 337 422 386 q 365 242 382 288 q 333 162 347 197 q 304 94 319 126 q 514 257 425 172 l 514 156 q 401 55 468 103 q 268 -18 333 7 q 256 -44 267 -19 q 228 -118 246 -69 q 185 -210 211 -167 q 123 -283 160 -253 q 42 -312 86 -312 q -24 -296 -1 -312 q -49 -244 -46 -279 q -37 -165 -53 -208 q 6 -88 -22 -121 q 77 -31 33 -56 q 164 17 121 -7 m 132 -85 q 47 -167 68 -126 q 28 -226 25 -208 q 56 -228 31 -244 q 96 -187 82 -211 q 119 -142 110 -164 q 132 -85 128 -119 z "},"z":{"ha":538,"x_min":-85,"x_max":538,"o":"m -85 -219 q -75 -171 -85 -194 q -50 -126 -65 -147 q -15 -87 -35 -104 q 43 -47 4 -69 q 108 -8 82 -24 q 158 20 135 7 q 211 47 182 33 q 158 74 192 65 q 94 80 125 83 q 57 85 64 76 q 50 115 50 94 q 74 160 50 135 q 129 211 97 186 q 210 274 161 236 q 324 376 260 311 q 391 473 388 442 q 390 519 394 504 q 360 537 385 533 q 319 531 336 540 q 287 506 301 521 q 260 474 272 492 q 240 447 247 457 q 213 410 232 436 q 173 353 194 383 q 126 287 151 322 q 69 215 100 251 q 0 156 39 179 l 0 257 q 72 349 22 281 q 151 460 122 417 q 213 542 179 504 q 288 604 246 579 q 382 629 329 629 q 470 600 435 629 q 506 516 506 571 q 478 412 506 461 q 410 320 451 363 q 322 243 369 278 q 222 171 275 208 q 288 144 264 158 q 332 99 313 129 q 433 165 388 131 q 492 212 478 199 q 538 257 506 225 l 538 156 q 340 13 439 74 q 295 -114 321 -60 q 232 -212 269 -168 q 144 -285 194 -257 q 51 -312 94 -312 q -12 -306 8 -312 q -48 -288 -32 -300 q -74 -259 -64 -276 q -85 -219 -85 -242 m 13 -214 q 23 -231 13 -226 q 51 -236 33 -236 q 99 -217 68 -236 q 157 -171 129 -199 q 204 -112 185 -143 q 229 -33 224 -82 q 137 -88 158 -74 q 97 -115 115 -103 q 71 -133 78 -128 q 53 -148 64 -139 q 34 -167 43 -157 q 19 -190 25 -178 q 13 -214 13 -203 z "},"–":{"ha":694,"x_min":0,"x_max":0,"o":""},"◼":{"ha":632,"x_min":0,"x_max":632,"o":"m 0 632 l 632 632 l 632 0 l 0 0 l 0 632 z "}}}
